<svg class="ldi-h1u9ab" width="200px"  height="200px"  xmlns="http://www.w3.org/2000/svg" xmlns:xlink="http://www.w3.org/1999/xlink" viewBox="0 0 100 100" preserveAspectRatio="xMidYMid" style="background: none;"><!--?xml version="1.0" encoding="utf-8"?--><!--Generator: Adobe Illustrator 21.0.0, SVG Export Plug-In . SVG Version: 6.00 Build 0)--><svg version="1.1" id="圖層_1" xmlns="http://www.w3.org/2000/svg" xmlns:xlink="http://www.w3.org/1999/xlink" x="0px" y="0px" viewBox="0 0 100 100" style="transform-origin: 50px 50px 0px;" xml:space="preserve"><g style="transform-origin: 50px 50px 0px;"><g fill="#fdfdfd" style="fill: rgb(253, 253, 253); transform-origin: 50px 50px 0px; transform: scale(0.6);"><g class="ld ld-breath" style="transform-origin: 50px 50px 0px; animation-duration: 1.2s; animation-delay: -1.2s; animation-direction: normal;"><g fill="#fdfdfd" style="fill: rgb(253, 253, 253);"><style type="text/css" style="transform-origin: 50px 50px 0px;">.st0{stroke-linejoin:round}.st0,.st1{fill:none;stroke:#333;stroke-width:3;stroke-linecap:round;stroke-miterlimit:10}</style><g style="transform-origin: 50px 50px 0px;"><path class="st0" d="M40.5,70.5l29.2,0L50,59.9L13.4,79.6c-2.7,1-5.6-1.1-5.9-4.5c-0.2-2.4,1.1-4.6,3-5.5L47.3,47l0,0 c0.9-0.3,1.8-0.5,2.7-0.5l0,0v-6.7c-5.4,0-9.8-4.4-9.8-9.8s4.4-9.8,9.8-9.8s9.8,4.4,9.8,9.8" stroke="#85a2b6" style="stroke: rgb(133, 162, 182);"></path></g><g style="transform-origin: 50px 50px 0px;"><path class="st0" d="M57.6,50l31.9,19.6c1.9,0.9,3.2,3.1,3,5.5c-0.3,3.4-3.2,5.5-5.9,4.5l-5.5-3l-62.3,0" stroke="#85a2b6" style="stroke: rgb(133, 162, 182);"></path></g><metadata xmlns:d="https://loading.io/stock/" style="transform-origin: 50px 50px 0px;">
<d:name style="transform-origin: 50px 50px 0px;">hanger</d:name>
<d:tags style="transform-origin: 50px 50px 0px;">hanger,clothes stand,coat hanger</d:tags>
<d:license style="transform-origin: 50px 50px 0px;">cc-by</d:license>
<d:slug style="transform-origin: 50px 50px 0px;">h1u9ab</d:slug>
</metadata></g></g></g></g><style type="text/css" style="transform-origin: 50px 50px 0px;">path,ellipse,circle,rect,polygon,polyline,line { stroke-width: 0; }@keyframes ld-breath {
  0% {
    -webkit-transform: scale(0.86);
    transform: scale(0.86);
  }
  50% {
    -webkit-transform: scale(1.06);
    transform: scale(1.06);
  }
  100% {
    -webkit-transform: scale(0.86);
    transform: scale(0.86);
  }
}
@-webkit-keyframes ld-breath {
  0% {
    -webkit-transform: scale(0.86);
    transform: scale(0.86);
  }
  50% {
    -webkit-transform: scale(1.06);
    transform: scale(1.06);
  }
  100% {
    -webkit-transform: scale(0.86);
    transform: scale(0.86);
  }
}
.ld.ld-breath {
  -webkit-animation: ld-breath 1s infinite;
  animation: ld-breath 1s infinite;
}
</style></svg></svg>